<svg version="1.1" xmlns="http://www.w3.org/2000/svg" xmlns:xlink="http://www.w3.org/1999/xlink" width="2048px" height="2048px" viewBox="0,0,256,256"><g fill="none" fill-rule="none" stroke="none" stroke-width="1" stroke-linecap="butt" stroke-linejoin="miter" stroke-miterlimit="10" stroke-dasharray="" stroke-dashoffset="0" font-family="none" font-weight="none" font-size="none" text-anchor="none" style="mix-blend-mode: normal"><g transform="scale(0.125,0.125)"><g id="Layer_x0020_1"><g id="_526164912" fill="none" fill-rule="evenodd"><rect x="0" y="0" width="2048" height="2048" id="_526171128"></rect><rect x="255.999" y="255.999" width="1536" height="1536" id="_526156200"></rect></g><g id="_526143576" fill="#7ab2b2" fill-rule="nonzero"><path d="M586.236,1551.03l1107.174,-1197.189l19.48,-21.065l21.07,19.487l42.35,39.161l21.06,19.481l-19.49,21.072l-1168.239,1263.223l-20.351,22.01l-21.105,-21.11l-297.451,-297.45l-20.389,-20.39l20.389,-20.39l40.783,-40.78l20.391,-20.39l20.389,20.39z" id="_526167792"></path><path d="M586.236,1551.03l1107.174,-1197.189l19.48,-21.065l21.07,19.487l42.35,39.161l21.06,19.481l-19.49,21.072l-1168.239,1263.223l-20.351,22.01l-21.105,-21.11z" id="_526163208"></path></g></g></g></g></svg>