<svg version="1.1" xmlns="http://www.w3.org/2000/svg" xmlns:xlink="http://www.w3.org/1999/xlink" width="25px" height="25px" viewBox="0,0,256,256"><g fill="#7ab2b2" fill-rule="nonzero" stroke="none" stroke-width="1" stroke-linecap="butt" stroke-linejoin="miter" stroke-miterlimit="10" stroke-dasharray="" stroke-dashoffset="0" font-family="none" font-weight="none" font-size="none" text-anchor="none" style="mix-blend-mode: normal"><g transform="translate(0,-5.12084) scale(10.24,10.24)"><g id="trash"><path d="M22.5,2h-20c-0.27614,0 -0.5,0.22386 -0.5,0.5c0,0.27614 0.22386,0.5 0.5,0.5h0.5l2.4,19.61c0.10174,0.80307 0.79059,1.40151 1.6,1.39h10.9c0.8099,0.00759 1.49936,-0.58766 1.61,-1.39l2.4,-19.61h0.59c0.27614,0 0.5,-0.22386 0.5,-0.5c0,-0.27614 -0.22386,-0.5 -0.5,-0.5zM19.35,15.68l-0.67,-0.88l0.92,-1.22zM18.61,21.68l-2.61,-3.39l2,-2.66l1.09,1.43v0zM6.33,21.68l-0.56,-4.6v0l1.12,-1.47l2,2.66zM4.22,4.44l1.89,2.49l-1.36,1.86zM8.44,3l0.28,0.37l-2,2.72l-2.34,-3.09zM15.21,3v0l-2.74,3.65l-2.47,-3.29l0.23,-0.36zM20.56,3l-2.21,2.91l-1.9,-2.84l0.05,-0.07zM19.84,11.65c-0.02578,0.02075 -0.04925,0.04422 -0.07,0.07l-1.72,2.28l-2.29,-3l2.53,-3.32l1.71,2.55zM15.13,10.14l-2,-2.67l2.71,-3.56l1.86,2.85zM5.13,11.57l-0.16,-1.33l1.78,-2.48l2.44,3.24l-2.27,3l-1.74,-2.3zM7.36,6.92l2,-2.72l2.49,3.27l-2,2.67zM12.47,8.3l2,2.66l-2,2.67l-2,-2.67zM5.33,13.49l1,1.27l-0.69,0.92zM7.55,14.76l2.26,-3l2,2.66l-2.26,3zM12.47,15.28l2.3,3l-2.26,3l-2.3,-3zM13.1,14.45l2,-2.66l2.29,3l-2,2.67zM20.2,8.71l-1.27,-1.91l1.79,-2.36zM6.68,22.88l2.9,-3.81l2.3,3l-0.69,0.91h-4.19c-0.11358,-0.00478 -0.22391,-0.03926 -0.32,-0.1zM12.51,22.88l0.06,0.08h-0.13zM13.83,22.96l-0.69,-0.91l2.26,-3l2.86,3.76c-0.10451,0.07664 -0.23041,0.11861 -0.36,0.12z"></path></g></g></g></svg>